<svg xmlns="http://www.w3.org/2000/svg" xmlns:xlink="http://www.w3.org/1999/xlink" xmlns:inkscape="http://www.inkscape.org/namespaces/inkscape" version="1.1" width="350" height="87" viewBox="0 0 350 87">
<defs>
<path id="font_1_1" d="M.19198609 .2502594C.19198609 .2792511 .16799927 .30325318 .13899231 .30325318 .10998535 .30325318 .085998538 .2792511 .085998538 .2502594 .085998538 .22125244 .10998535 .19726563 .13899231 .19726563 .16799927 .19726563 .19198609 .22125244 .19198609 .2502594Z"/>
<path id="font_2_121" d="M.45999146 .31976319C.45999146 .39982606 .45498658 .47988893 .41999818 .5539398 .37399293 .65000918 .2919922 .6660156 .25 .6660156 .18998719 .6660156 .116989139 .64001467 .07598877 .54693606 .04399109 .47789 .038986207 .39982606 .038986207 .31976319 .038986207 .24472046 .042999269 .15464783 .083999637 .07859802 .1269989-.0024719239 .19999695-.022460938 .24899292-.022460938 .30299378-.022460938 .3789978-.0014648438 .4229889 .09359741 .45498658 .16265869 .45999146 .2407074 .45999146 .31976319M.3769989 .3317871C.3769989 .25672914 .3769989 .18867493 .3659973 .12461853 .35099793 .029556275 .2939911-.00047302247 .24899292-.00047302247 .20999146-.00047302247 .15098572 .024551392 .1329956 .12062073 .12199402 .18066406 .12199402 .2727356 .12199402 .3317871 .12199402 .39582826 .12199402 .46188355 .12998963 .5159149 .14898682 .63500979 .22399903 .64401248 .24899292 .64401248 .28199769 .64401248 .34799195 .6259918 .36698915 .52693179 .3769989 .47088624 .3769989 .39482118 .3769989 .3317871Z"/>
<path id="font_2_82" d="M.4189911 0V.0309906H.3869934C.29699708 .0309906 .2939911 .041992189 .2939911 .07902527V.64012148C.2939911 .6640167 .2939911 .6660156 .2709961 .6660156 .20899964 .60227969 .12098694 .60227969 .08898926 .60227969V.57128909C.10899353 .57128909 .16799927 .57128909 .21998596 .5972748V.07902527C.21998596 .042999269 .21699524 .0309906 .1269989 .0309906H.09498596V0C.12998963 .0029907227 .21699524 .0029907227 .25698854 .0029907227 .29699708 .0029907227 .38398744 .0029907227 .4189911 0Z"/>
<path id="font_2_107" d="M.44898988 .17396546H.42399598C.4189911 .14398194 .4119873 .099990848 .4019928 .084991458 .394989 .07699585 .32899476 .07699585 .30699159 .07699585H.1269989L.23298645 .17996216C.3889923 .31803895 .44898988 .37210084 .44898988 .47216798 .44898988 .5860901 .35899354 .6660156 .23699951 .6660156 .12399292 .6660156 .049987794 .57411196 .049987794 .48516847 .049987794 .4291687 .099990848 .4291687 .102996829 .4291687 .11999512 .4291687 .15499878 .44117738 .15499878 .48217774 .15499878 .5081787 .13699341 .5341797 .101989749 .5341797 .09399414 .5341797 .09199524 .5341797 .08898926 .5331726 .11199951 .59806826 .1659851 .63500979 .22399903 .63500979 .31498719 .63500979 .35798646 .5541382 .35798646 .47216798 .35798646 .39196778 .30799867 .31297303 .25299073 .25097657L.06098938 .036987306C.049987794 .025985718 .049987794 .023986817 .049987794 0H.42099L.44898988 .17396546Z"/>
<path id="font_2_106" d="M.45700074 .17037964C.45700074 .252594 .3939972 .33088685 .2899933 .35191346 .37199403 .37893678 .42999269 .4490509 .42999269 .52809146 .42999269 .6100464 .34199525 .6660156 .24598694 .6660156 .14498902 .6660156 .068984989 .60606387 .068984989 .53009036 .068984989 .49710084 .09098816 .47808839 .11999512 .47808839 .15098572 .47808839 .17098999 .50009158 .17098999 .5290985 .17098999 .57910159 .12399292 .57910159 .10899353 .57910159 .13999939 .62802127 .20599365 .64100649 .24198914 .64100649 .2829895 .64100649 .33799745 .6190338 .33799745 .5290985 .33799745 .51708987 .33599855 .45906068 .30999757 .4149933 .27999879 .36691285 .24598694 .36390687 .22099304 .36291505 .21299744 .36190797 .18899536 .35990907 .18199158 .35990907 .17399597 .35890199 .16699219 .35791017 .16699219 .3479004 .16699219 .33691407 .17399597 .33691407 .19099427 .33691407H.23498535C.31698609 .33691407 .35398866 .2686615 .35398866 .17037964 .35398866 .034469606 .2849884 .0055389406 .24099732 .0055389406 .19799805 .0055389406 .12298584 .022491456 .08799744 .08137512 .12298584 .07637024 .1539917 .09837341 .1539917 .1363678 .1539917 .17237854 .1269989 .19238281 .09799194 .19238281 .07398987 .19238281 .041992189 .17837525 .041992189 .1343689 .041992189 .043441774 .1349945-.022460938 .24398804-.022460938 .3659973-.022460938 .45700074 .06838989 .45700074 .17037964Z"/>
<path id="font_3_1" d="M.33099366-.2400055C.33099366-.23701477 .33099366-.23500061 .31399537-.21800232 .18899536-.0920105 .15699768 .09700012 .15699768 .25 .15699768 .42399598 .19499207 .59799197 .31799317 .72299197 .33099366 .73498538 .33099366 .7369995 .33099366 .73999026 .33099366 .746994 .32699586 .75 .32099916 .75 .31098939 .75 .22099304 .6819916 .1619873 .5549927 .11099243 .44499208 .09899902 .33399964 .09899902 .25 .09899902 .17199707 .10998535 .050994874 .16499329-.06201172 .22499085-.18501282 .31098939-.25 .32099916-.25 .32699586-.25 .33099366-.24700928 .33099366-.2400055Z"/>
<path id="font_3_4" d="M.2939911 .64004519C.2939911 .66400149 .2939911 .6660156 .2709961 .6660156 .20899964 .60227969 .12098694 .60227969 .08898926 .60227969V.57128909C.10899353 .57128909 .16799927 .57128909 .21998596 .5972748V.07902527C.21998596 .042999269 .21699524 .0309906 .1269989 .0309906H.09498596V0C.12998963 .0029907227 .21699524 .0029907227 .25698854 .0029907227 .29699708 .0029907227 .38398744 .0029907227 .4189911 0V.0309906H.3869934C.29699708 .0309906 .2939911 .041992189 .2939911 .07902527V.64004519Z"/>
<path id="font_4_1" d="M.19198609 .052993776C.19198609 .08198547 .16799927 .10598755 .13899231 .10598755 .10998535 .10598755 .085998538 .08198547 .085998538 .052993776 .085998538 .023986817 .10998535 0 .13899231 0 .16799927 0 .19198609 .023986817 .19198609 .052993776Z"/>
<path id="font_3_5" d="M.1269989 .07699585 .23298645 .18003845C.3889923 .31811524 .44898988 .3721466 .44898988 .47216798 .44898988 .5860901 .35899354 .6660156 .23699951 .6660156 .12399292 .6660156 .049987794 .57411196 .049987794 .48516847 .049987794 .4291687 .099990848 .4291687 .102996829 .4291687 .11999512 .4291687 .15499878 .44117738 .15499878 .48217774 .15499878 .5081787 .13699341 .5341797 .101989749 .5341797 .09399414 .5341797 .09199524 .5341797 .08898926 .5331726 .11199951 .59806826 .1659851 .63500979 .22399903 .63500979 .31498719 .63500979 .35798646 .5541382 .35798646 .47216798 .35798646 .39215089 .30799867 .31311036 .25299073 .25108338L.06098938 .036987306C.049987794 .025985718 .049987794 .023986817 .049987794 0H.42099L.44898988 .17404175H.42399598C.4189911 .14402771 .4119873 .1000061 .4019928 .084991458 .394989 .07699585 .32899476 .07699585 .30699159 .07699585H.1269989Z"/>
<path id="font_3_6" d="M.13198853 .327713V.35173036C.13198853 .6047821 .2559967 .64100649 .30699159 .64100649 .33099366 .64100649 .37298585 .634964 .394989 .6007538 .37998963 .6007538 .33999635 .6007538 .33999635 .5557556 .33999635 .524765 .3639984 .5097656 .38598634 .5097656 .4019928 .5097656 .43199159 .51875308 .43199159 .5577545 .43199159 .6178589 .3880005 .6660156 .30499269 .6660156 .1769867 .6660156 .041992189 .5367584 .041992189 .31570436 .041992189 .048553468 .1579895-.022460938 .25099183-.022460938 .3619995-.022460938 .45700074 .07156372 .45700074 .2036438 .45700074 .33070375 .36799623 .4267578 .25698854 .4267578 .18899536 .4267578 .1519928 .37573243 .13198853 .327713M.25099183 .0055389406C.18798828 .0055389406 .1579895 .06556702 .1519928 .080566409 .13398743 .127594 .13398743 .2076416 .13398743 .22564698 .13398743 .30369569 .1659851 .40374757 .2559967 .40374757 .27198792 .40374757 .31799317 .40374757 .34899903 .34172059 .36698915 .30470277 .36698915 .2536621 .36698915 .20463562 .36698915 .15661621 .36698915 .10658264 .34999085 .0705719 .31999208 .010528564 .27398683 .0055389406 .25099183 .0055389406Z"/>
<path id="font_3_7" d="M.16299439 .4569702C.116989139 .486969 .11299133 .52098086 .11299133 .5379791 .11299133 .598999 .17799378 .64100649 .24899292 .64100649 .32199098 .64100649 .38598634 .58898928 .38598634 .51698306 .38598634 .45996095 .34700013 .4119568 .2869873 .37695313L.16299439 .4569702M.30899049 .36193849C.3809967 .3989563 .42999269 .45095826 .42999269 .51698306 .42999269 .6090088 .34098817 .6660156 .25 .6660156 .1499939 .6660156 .068984989 .59199526 .068984989 .49897767 .068984989 .4809723 .070999149 .43595887 .11299133 .38894654 .12399292 .37695313 .16099549 .35194398 .18598938 .33494569 .12799073 .30592347 .041992189 .24984741 .041992189 .15072632 .041992189 .04458618 .14399719-.022460938 .24899292-.022460938 .3619995-.022460938 .45700074 .06060791 .45700074 .16773987 .45700074 .20379639 .44599916 .24885559 .4079895 .2909088 .3889923 .31193543 .37298585 .3219452 .30899049 .36193849M.20899964 .3199463 .33198548 .24183655C.3600006 .2228241 .40699769 .19277954 .40699769 .13169861 .40699769 .05760193 .33198548 .0055389406 .25 .0055389406 .1639862 .0055389406 .09199524 .067611698 .09199524 .15072632 .09199524 .20880127 .12399292 .27288819 .20899964 .3199463Z"/>
<path id="font_3_2" d="M.2889862 .25C.2889862 .32798768 .27799989 .44898988 .22299195 .56199648 .16299439 .68499758 .07699585 .75 .066986087 .75 .06098938 .75 .056991579 .74598696 .056991579 .73999026 .056991579 .7369995 .056991579 .73498538 .07598877 .71699526 .17399597 .6179962 .23098755 .45899964 .23098755 .25 .23098755 .07899475 .19400025-.09700012 .069992069-.2230072 .056991579-.23500061 .056991579-.23701477 .056991579-.2400055 .056991579-.2460022 .06098938-.25 .066986087-.25 .07699585-.25 .16699219-.18200684 .22599793-.055007936 .2769928 .054992677 .2889862 .16600037 .2889862 .25Z"/>
<path id="font_3_3" d="M.45999146 .31976319C.45999146 .39982606 .45498658 .47988893 .41999818 .5539398 .37399293 .65000918 .2919922 .6660156 .25 .6660156 .18998719 .6660156 .116989139 .64001467 .07598877 .54693606 .04399109 .47789 .038986207 .39982606 .038986207 .31976319 .038986207 .24472046 .042999269 .15464783 .083999637 .07859802 .1269989-.0024719239 .19999695-.022460938 .24899292-.022460938 .30299378-.022460938 .3789978-.0014648438 .4229889 .09359741 .45498658 .16265869 .45999146 .2407074 .45999146 .31976319M.24899292-.00047302247C.20999146-.00047302247 .15098572 .024551392 .1329956 .12062073 .12199402 .18066406 .12199402 .2727356 .12199402 .3317871 .12199402 .39582826 .12199402 .46188355 .12998963 .5159149 .14898682 .63500979 .22399903 .64401248 .24899292 .64401248 .28199769 .64401248 .34799195 .6259918 .36698915 .52693179 .3769989 .47088624 .3769989 .39482118 .3769989 .3317871 .3769989 .25672914 .3769989 .18867493 .3659973 .12461853 .35099793 .029556275 .2939911-.00047302247 .24899292-.00047302247Z"/>
</defs>
<path transform="matrix(1.00006,0,0,-1.00002,3.7083207,43.729619)" stroke-width=".99628" stroke-linecap="butt" stroke-miterlimit="10" stroke-linejoin="miter" fill="none" stroke="#000000" d="M0 0H340.1617"/>
<use data-text="&#x00b7;" xlink:href="#font_1_1" transform="matrix(19.926394,0,0,-19.925599,194.53577,63.058008)"/>
<use data-text="&#x00b7;" xlink:href="#font_1_1" transform="matrix(19.926394,0,0,-19.925599,203.36318,63.058008)"/>
<use data-text="&#x00b7;" xlink:href="#font_1_1" transform="matrix(19.926394,0,0,-19.925599,212.21051,63.058008)"/>
<path transform="matrix(1.00006,0,0,-1.00002,3.7083207,43.729619)" stroke-width=".99628" stroke-linecap="butt" stroke-miterlimit="10" stroke-linejoin="miter" fill="none" stroke="#000000" d="M0-5.66934V5.66934"/>
<use data-text="0" xlink:href="#font_2_121" transform="matrix(9.963197,0,0,-9.962799,1.2171707,61.586977)"/>
<path transform="matrix(1.00006,0,0,-1.00002,3.7083207,43.729619)" stroke-width=".99628" stroke-linecap="butt" stroke-miterlimit="10" stroke-linejoin="miter" fill="none" stroke="#000000" d="M28.3468-5.66934V5.66934"/>
<use data-text="1" xlink:href="#font_2_82" transform="matrix(9.963197,0,0,-9.962799,29.565873,61.586977)"/>
<path transform="matrix(1.00006,0,0,-1.00002,3.7083207,43.729619)" stroke-width=".99628" stroke-linecap="butt" stroke-miterlimit="10" stroke-linejoin="miter" fill="none" stroke="#000000" d="M56.69362-5.66934V5.66934"/>
<use data-text="2" xlink:href="#font_2_107" transform="matrix(9.963197,0,0,-9.962799,57.91457,61.586977)"/>
<path transform="matrix(1.00006,0,0,-1.00002,3.7083207,43.729619)" stroke-width=".99628" stroke-linecap="butt" stroke-miterlimit="10" stroke-linejoin="miter" fill="none" stroke="#000000" d="M85.04042-5.66934V5.66934"/>
<use data-text="3" xlink:href="#font_2_106" transform="matrix(9.963197,0,0,-9.962799,86.263278,61.586977)"/>
<path transform="matrix(1.00006,0,0,-1.00002,3.7083207,43.729619)" stroke-width=".99628" stroke-linecap="butt" stroke-miterlimit="10" stroke-linejoin="miter" fill="none" stroke="#000000" d="M311.8149-5.66934V5.66934"/>
<use data-text="1" xlink:href="#font_2_82" transform="matrix(9.963197,0,0,-9.962799,310.56074,61.586977)"/>
<use data-text="1" xlink:href="#font_2_82" transform="matrix(9.963197,0,0,-9.962799,315.54234,61.586977)"/>
<path transform="matrix(1.00006,0,0,-1.00002,3.7083207,43.729619)" stroke-width=".99628" stroke-linecap="butt" stroke-miterlimit="10" stroke-linejoin="miter" fill="none" stroke="#000000" d="M340.1617-5.66934V5.66934"/>
<use data-text="1" xlink:href="#font_2_82" transform="matrix(9.963197,0,0,-9.962799,338.90843,61.586977)"/>
<use data-text="2" xlink:href="#font_2_107" transform="matrix(9.963197,0,0,-9.962799,343.89,61.586977)"/>
<path transform="matrix(1.00006,0,0,-1.00002,3.7083207,43.729619)" stroke-width=".3985" stroke-linecap="butt" stroke-miterlimit="10" stroke-linejoin="miter" fill="none" stroke="#000000" d="M2.83484 11.33871C131.29666 33.98935 208.86502 33.98935 336.87556 11.41827"/>
<path transform="matrix(.98485907,.17363347,.17364042,-.9848197,340.60404,32.31112)" stroke-width=".31879" stroke-linecap="round" stroke-linejoin="round" fill="none" stroke="#000000" d="M-1.19551 1.59401C-1.09587 .99626 0 .09961 .29886 0 0-.09961-1.09587-.99626-1.19551-1.59401"/>
<use data-text="(" xlink:href="#font_3_1" transform="matrix(9.963197,0,0,-9.962799,156.08646,9.39193)"/>
<use data-text="1" xlink:href="#font_3_4" transform="matrix(9.963197,0,0,-9.962799,159.95218,9.39193)"/>
<use data-text="." xlink:href="#font_4_1" transform="matrix(9.963197,0,0,-9.962799,164.943,9.39193)"/>
<use data-text="1" xlink:href="#font_3_4" transform="matrix(9.963197,0,0,-9.962799,167.71018,9.39193)"/>
<use data-text="2" xlink:href="#font_3_5" transform="matrix(9.963197,0,0,-9.962799,172.69178,9.39193)"/>
<use data-text="6" xlink:href="#font_3_6" transform="matrix(9.963197,0,0,-9.962799,177.67337,9.39193)"/>
<use data-text="8" xlink:href="#font_3_7" transform="matrix(9.963197,0,0,-9.962799,182.65497,9.39193)"/>
<use data-text=")" xlink:href="#font_3_2" transform="matrix(9.963197,0,0,-9.962799,187.63657,9.39193)"/>
<path transform="matrix(1.00006,0,0,-1.00002,3.7083207,43.729619)" stroke-width=".3985" stroke-linecap="butt" stroke-miterlimit="10" stroke-linejoin="miter" fill="none" stroke="#000000" d="M2.83484-25.51212C11.14508-28.53682 17.20213-28.53682 25.08174-25.66884"/>
<path transform="matrix(.93975636,-.34200687,-.3420205,-.93971887,28.791565,69.39899)" stroke-width=".31879" stroke-linecap="round" stroke-linejoin="round" fill="none" stroke="#000000" d="M-1.19551 1.59401C-1.09587 .99626 0 .09961 .29886 0 0-.09961-1.09587-.99626-1.19551-1.59401"/>
<use data-text="(" xlink:href="#font_3_1" transform="matrix(9.963197,0,0,-9.962799,5.1514055,82.503398)"/>
<use data-text="1" xlink:href="#font_3_4" transform="matrix(9.963197,0,0,-9.962799,9.017128,82.503398)"/>
<use data-text="." xlink:href="#font_4_1" transform="matrix(9.963197,0,0,-9.962799,14.007942,82.503398)"/>
<use data-text="0" xlink:href="#font_3_3" transform="matrix(9.963197,0,0,-9.962799,16.775109,82.503398)"/>
<use data-text="1" xlink:href="#font_3_4" transform="matrix(9.963197,0,0,-9.962799,21.756707,82.503398)"/>
<use data-text=")" xlink:href="#font_3_2" transform="matrix(9.963197,0,0,-9.962799,26.738305,82.503398)"/>
<path transform="matrix(1.00006,0,0,-1.00002,3.7083207,43.729619)" stroke-width=".3985" stroke-linecap="butt" stroke-miterlimit="10" stroke-linejoin="miter" fill="none" stroke="#000000" d="M31.18166-25.51212C39.49188-28.53682 45.54895-28.53682 53.42854-25.66884"/>
<path transform="matrix(.93975636,-.34200687,-.3420205,-.93971887,57.140066,69.39899)" stroke-width=".31879" stroke-linecap="round" stroke-linejoin="round" fill="none" stroke="#000000" d="M-1.19551 1.59401C-1.09587 .99626 0 .09961 .29886 0 0-.09961-1.09587-.99626-1.19551-1.59401"/>
<use data-text="(" xlink:href="#font_3_1" transform="matrix(9.963197,0,0,-9.962799,33.500108,82.503398)"/>
<use data-text="1" xlink:href="#font_3_4" transform="matrix(9.963197,0,0,-9.962799,37.36583,82.503398)"/>
<use data-text="." xlink:href="#font_4_1" transform="matrix(9.963197,0,0,-9.962799,42.356645,82.503398)"/>
<use data-text="0" xlink:href="#font_3_3" transform="matrix(9.963197,0,0,-9.962799,45.12381,82.503398)"/>
<use data-text="1" xlink:href="#font_3_4" transform="matrix(9.963197,0,0,-9.962799,50.105409,82.503398)"/>
<use data-text=")" xlink:href="#font_3_2" transform="matrix(9.963197,0,0,-9.962799,55.087007,82.503398)"/>
<path transform="matrix(1.00006,0,0,-1.00002,3.7083207,43.729619)" stroke-width=".3985" stroke-linecap="butt" stroke-miterlimit="10" stroke-linejoin="miter" fill="none" stroke="#000000" d="M59.52846-25.51212C67.8387-28.53682 73.89577-28.53682 81.77536-25.66884"/>
<path transform="matrix(.93975636,-.34200687,-.3420205,-.93971887,85.48859,69.39899)" stroke-width=".31879" stroke-linecap="round" stroke-linejoin="round" fill="none" stroke="#000000" d="M-1.19551 1.59401C-1.09587 .99626 0 .09961 .29886 0 0-.09961-1.09587-.99626-1.19551-1.59401"/>
<use data-text="(" xlink:href="#font_3_1" transform="matrix(9.963197,0,0,-9.962799,61.84881,82.503398)"/>
<use data-text="1" xlink:href="#font_3_4" transform="matrix(9.963197,0,0,-9.962799,65.71453,82.503398)"/>
<use data-text="." xlink:href="#font_4_1" transform="matrix(9.963197,0,0,-9.962799,70.705348,82.503398)"/>
<use data-text="0" xlink:href="#font_3_3" transform="matrix(9.963197,0,0,-9.962799,73.47251,82.503398)"/>
<use data-text="1" xlink:href="#font_3_4" transform="matrix(9.963197,0,0,-9.962799,78.45411,82.503398)"/>
<use data-text=")" xlink:href="#font_3_2" transform="matrix(9.963197,0,0,-9.962799,83.43571,82.503398)"/>
<path transform="matrix(1.00006,0,0,-1.00002,3.7083207,43.729619)" stroke-width=".3985" stroke-linecap="butt" stroke-miterlimit="10" stroke-linejoin="miter" fill="none" stroke="#000000" d="M314.64976-25.51212C322.96-28.53682 329.01704-28.53682 336.89665-25.66884"/>
<path transform="matrix(.93975636,-.34200687,-.3420205,-.93971887,340.62516,69.39899)" stroke-width=".31879" stroke-linecap="round" stroke-linejoin="round" fill="none" stroke="#000000" d="M-1.19551 1.59401C-1.09587 .99626 0 .09961 .29886 0 0-.09961-1.09587-.99626-1.19551-1.59401"/>
<use data-text="(" xlink:href="#font_3_1" transform="matrix(9.963197,0,0,-9.962799,316.9851,82.503398)"/>
<use data-text="1" xlink:href="#font_3_4" transform="matrix(9.963197,0,0,-9.962799,320.85084,82.503398)"/>
<use data-text="." xlink:href="#font_4_1" transform="matrix(9.963197,0,0,-9.962799,325.84165,82.503398)"/>
<use data-text="0" xlink:href="#font_3_3" transform="matrix(9.963197,0,0,-9.962799,328.60884,82.503398)"/>
<use data-text="1" xlink:href="#font_3_4" transform="matrix(9.963197,0,0,-9.962799,333.5904,82.503398)"/>
<use data-text=")" xlink:href="#font_3_2" transform="matrix(9.963197,0,0,-9.962799,338.57203,82.503398)"/>
</svg>
