<svg xmlns="http://www.w3.org/2000/svg" xmlns:xlink="http://www.w3.org/1999/xlink" xmlns:inkscape="http://www.inkscape.org/namespaces/inkscape" version="1.1" width="348" height="97" viewBox="0 0 348 97">
<defs>
<path id="font_1_2" d="M.19198609 .2502594C.19198609 .2792511 .16799927 .30325318 .13899231 .30325318 .10998535 .30325318 .085998538 .2792511 .085998538 .2502594 .085998538 .22125244 .10998535 .19726563 .13899231 .19726563 .16799927 .19726563 .19198609 .22125244 .19198609 .2502594Z"/>
<path id="font_2_121" d="M.45999146 .31976319C.45999146 .39982606 .45498658 .47988893 .41999818 .5539398 .37399293 .65000918 .2919922 .6660156 .25 .6660156 .18998719 .6660156 .116989139 .64001467 .07598877 .54693606 .04399109 .47789 .038986207 .39982606 .038986207 .31976319 .038986207 .24472046 .042999269 .15464783 .083999637 .07859802 .1269989-.0024719239 .19999695-.022460938 .24899292-.022460938 .30299378-.022460938 .3789978-.0014648438 .4229889 .09359741 .45498658 .16265869 .45999146 .2407074 .45999146 .31976319M.3769989 .3317871C.3769989 .25672914 .3769989 .18867493 .3659973 .12461853 .35099793 .029556275 .2939911-.00047302247 .24899292-.00047302247 .20999146-.00047302247 .15098572 .024551392 .1329956 .12062073 .12199402 .18066406 .12199402 .2727356 .12199402 .3317871 .12199402 .39582826 .12199402 .46188355 .12998963 .5159149 .14898682 .63500979 .22399903 .64401248 .24899292 .64401248 .28199769 .64401248 .34799195 .6259918 .36698915 .52693179 .3769989 .47088624 .3769989 .39482118 .3769989 .3317871Z"/>
<path id="font_2_82" d="M.4189911 0V.0309906H.3869934C.29699708 .0309906 .2939911 .041992189 .2939911 .07902527V.64012148C.2939911 .6640167 .2939911 .6660156 .2709961 .6660156 .20899964 .60227969 .12098694 .60227969 .08898926 .60227969V.57128909C.10899353 .57128909 .16799927 .57128909 .21998596 .5972748V.07902527C.21998596 .042999269 .21699524 .0309906 .1269989 .0309906H.09498596V0C.12998963 .0029907227 .21699524 .0029907227 .25698854 .0029907227 .29699708 .0029907227 .38398744 .0029907227 .4189911 0Z"/>
<path id="font_2_107" d="M.44898988 .17396546H.42399598C.4189911 .14398194 .4119873 .099990848 .4019928 .084991458 .394989 .07699585 .32899476 .07699585 .30699159 .07699585H.1269989L.23298645 .17996216C.3889923 .31803895 .44898988 .37210084 .44898988 .47216798 .44898988 .5860901 .35899354 .6660156 .23699951 .6660156 .12399292 .6660156 .049987794 .57411196 .049987794 .48516847 .049987794 .4291687 .099990848 .4291687 .102996829 .4291687 .11999512 .4291687 .15499878 .44117738 .15499878 .48217774 .15499878 .5081787 .13699341 .5341797 .101989749 .5341797 .09399414 .5341797 .09199524 .5341797 .08898926 .5331726 .11199951 .59806826 .1659851 .63500979 .22399903 .63500979 .31498719 .63500979 .35798646 .5541382 .35798646 .47216798 .35798646 .39196778 .30799867 .31297303 .25299073 .25097657L.06098938 .036987306C.049987794 .025985718 .049987794 .023986817 .049987794 0H.42099L.44898988 .17396546Z"/>
<path id="font_3_2" d="M.08799744 .059265138C.084991458 .044265748 .07899475 .021255494 .07899475 .01625061 .07899475-.0017547608 .09298706-.0107421879 .10798645-.0107421879 .11999512-.0107421879 .13798523-.002746582 .14498902 .01725769 .1459961 .019256592 .1579895 .06626892 .1639862 .091278079L.18598938 .18130493C.19198609 .2033081 .19799805 .22531128 .20298767 .24832154 .20698548 .26531983 .21499634 .29434205 .21598816 .29833985 .23098755 .3293457 .28399659 .42037965 .3789978 .42037965 .42399598 .42037965 .43299867 .38336183 .43299867 .35035707 .43299867 .28833009 .38398744 .16029358 .36799623 .11727905 .35899354 .0942688 .35798646 .08227539 .35798646 .0712738 .35798646 .024261475 .3929901-.0107421879 .43998719-.0107421879 .5339966-.0107421879 .57099917 .13528443 .57099917 .14329529 .57099917 .1532898 .56199648 .1532898 .5589905 .1532898 .548996 .1532898 .548996 .15029907 .5439911 .13528443 .5239868 .06726074 .4909973 .011245728 .44198609 .011245728 .4249878 .011245728 .41799928 .021255494 .41799928 .044265748 .41799928 .0692749 .4269867 .09327698 .43598939 .11528015 .45498658 .16830445 .49699403 .27833558 .49699403 .3353424 .49699403 .40237428 .45399476 .4423828 .38198854 .4423828 .2919922 .4423828 .24299622 .37835694 .22599793 .35534669 .22099304 .41137696 .17999268 .4423828 .13398743 .4423828 .08799744 .4423828 .068984989 .4033661 .05899048 .38536073 .042999269 .35134889 .0289917 .29232789 .0289917 .28833009 .0289917 .27833558 .038986207 .27833558 .040985109 .27833558 .050994874 .27833558 .051986696 .2793274 .057998659 .30133058 .07499695 .37236024 .09498596 .42037965 .1309967 .42037965 .15098572 .42037965 .1619873 .4073639 .1619873 .37435914 .1619873 .35334779 .15899658 .3423462 .1459961 .29032899L.08799744 .059265138Z"/>
<path id="font_1_1" d="M.6589966 .23046875C.6759949 .23046875 .69400027 .23046875 .69400027 .25045777 .69400027 .27046205 .6759949 .27046205 .6589966 .27046205H.117996219C.100997928 .27046205 .08299255 .27046205 .08299255 .25045777 .08299255 .23046875 .100997928 .23046875 .117996219 .23046875H.6589966Z"/>
<path id="font_4_4" d="M.2939911 .64004519C.2939911 .66400149 .2939911 .6660156 .2709961 .6660156 .20899964 .60227969 .12098694 .60227969 .08898926 .60227969V.57128909C.10899353 .57128909 .16799927 .57128909 .21998596 .5972748V.07902527C.21998596 .042999269 .21699524 .0309906 .1269989 .0309906H.09498596V0C.12998963 .0029907227 .21699524 .0029907227 .25698854 .0029907227 .29699708 .0029907227 .38398744 .0029907227 .4189911 0V.0309906H.3869934C.29699708 .0309906 .2939911 .041992189 .2939911 .07902527V.64004519Z"/>
<path id="font_4_1" d="M.33099366-.2400055C.33099366-.23701477 .33099366-.23500061 .31399537-.21800232 .18899536-.0920105 .15699768 .09700012 .15699768 .25 .15699768 .42399598 .19499207 .59799197 .31799317 .72299197 .33099366 .73498538 .33099366 .7369995 .33099366 .73999026 .33099366 .746994 .32699586 .75 .32099916 .75 .31098939 .75 .22099304 .6819916 .1619873 .5549927 .11099243 .44499208 .09899902 .33399964 .09899902 .25 .09899902 .17199707 .10998535 .050994874 .16499329-.06201172 .22499085-.18501282 .31098939-.25 .32099916-.25 .32699586-.25 .33099366-.24700928 .33099366-.2400055Z"/>
<path id="font_4_3" d="M.40899659 .23046875H.6879883C.70199587 .23046875 .72099307 .23046875 .72099307 .25045777 .72099307 .27046205 .70199587 .27046205 .6879883 .27046205H.40899659V.5500183C.40899659 .56399539 .40899659 .5830078 .3889923 .5830078 .36898805 .5830078 .36898805 .56399539 .36898805 .5500183V.27046205H.08898926C.07499695 .27046205 .055999757 .27046205 .055999757 .25045777 .055999757 .23046875 .07499695 .23046875 .08898926 .23046875H.36898805V-.05000305C.36898805-.06401062 .36898805-.08300781 .3889923-.08300781 .40899659-.08300781 .40899659-.06401062 .40899659-.05000305V.23046875Z"/>
<path id="font_3_1" d="M.32398988 .14329529C.32398988 .1532898 .31498719 .1532898 .31199647 .1532898 .30299378 .1532898 .30099488 .14929199 .29899598 .14228821 .2679901 .044265748 .18499756 .011245728 .14199829 .011245728 .12799073 .011245728 .115997318 .014251709 .115997318 .044265748 .115997318 .06826782 .12399292 .091278079 .13398743 .11828613 .1789856 .23931885 .21998596 .4073639 .21998596 .41537477 .21998596 .43237306 .20799256 .4423828 .19099427 .4423828 .17999268 .4423828 .1619873 .43537904 .1539917 .41636659 .14698792 .39736939 .13798523 .34835816 .13198853 .3293457 .12998963 .32434083 .10499573 .23631287 .101989749 .22331238 .09899902 .21331787 .08999634 .18830872 .08799744 .17829895 .07998657 .15029907 .055999757 .103271488 .055999757 .0712738 .055999757 .030258179 .083999637-.0107421879 .13999939-.0107421879 .2539978-.0107421879 .32398988 .11027527 .32398988 .14329529Z"/>
<path id="font_4_2" d="M.2889862 .25C.2889862 .32798768 .27799989 .44898988 .22299195 .56199648 .16299439 .68499758 .07699585 .75 .066986087 .75 .06098938 .75 .056991579 .74598696 .056991579 .73999026 .056991579 .7369995 .056991579 .73498538 .07598877 .71699526 .17399597 .6179962 .23098755 .45899964 .23098755 .25 .23098755 .07899475 .19400025-.09700012 .069992069-.2230072 .056991579-.23500061 .056991579-.23701477 .056991579-.2400055 .056991579-.2460022 .06098938-.25 .066986087-.25 .07699585-.25 .16699219-.18200684 .22599793-.055007936 .2769928 .054992677 .2889862 .16600037 .2889862 .25Z"/>
<path id="font_5_1" d="M.5149994-1.7478027C.5169983-1.7487946 .526001-1.7587891 .5269928-1.7587891H.548996C.5519867-1.7587891 .55999758-1.7577973 .55999758-1.7487946 .55999758-1.7447968 .55799868-1.7427979 .55599978-1.7397919 .519989-1.7037964 .46598817-1.6488037 .4039917-1.5388184 .29599-1.3468323 .2559967-1.0998688 .2559967-.8598938 .2559967-.41593934 .38198854-.154953 .5569916 .022033692 .55999758 .025024414 .55999758 .028030396 .55999758 .030029297 .55999758 .040039064 .5529938 .040039064 .54100039 .040039064 .5279999 .040039064 .526001 .040039064 .5169983 .0320282 .42199708-.049972536 .31498719-.18894959 .24598694-.39993287 .20298767-.5319214 .17999268-.6929016 .17999268-.8588867 .17999268-1.0958557 .22299195-1.3638306 .37998963-1.5958099 .40699769-1.6348114 .44400025-1.6757965 .44400025-1.6768036 .45399476-1.688797 .46798707-1.7048035 .47599793-1.711792L.5149994-1.7478027Z"/>
<path id="font_6_1" d="M.115997318 .20831299C.10598755 .17630005 .07398987 .103256229 .07398987 .07525635 .07398987 .035232545 .10499573-.009765625 .17199707-.009765625 .21699524-.009765625 .2679901 .008224487 .30899049 .041229249 .36499024 .087249759 .37399293 .14128113 .37399293 .14328003 .37399293 .15628052 .36099244 .15628052 .35798646 .15628052 .34498597 .15628052 .34298707 .15228272 .33898927 .13728333 .31399537 .0642395 .23498535 .018234253 .17399597 .018234253 .1599884 .018234253 .14698792 .021224976 .14698792 .053237916 .14698792 .0602417 .14698792 .07525635 .15899658 .105270389 .21299744 .24932862 .24899292 .4053955 .24899292 .4093933 .24899292 .42739869 .23498535 .44140626 .21499634 .44140626 .19599915 .44140626 .1789856 .42739869 .17298889 .41539 .1659851 .39639283 .15699768 .34835816 .15098572 .32936097 .14498902 .3133545 .13398743 .27033998 .1289978 .25431825L.115997318 .20831299Z"/>
<path id="font_7_1" d="M.44099427 .7259979C.44099427 .72698977 .44400025 .73098757 .44400025 .73599246 .44400025 .73999026 .44198609 .75 .4269867 .75 .40699769 .75 .1499939 .58999636 .1499939 .25 .1499939-.08900452 .40699769-.25 .4269867-.25 .44198609-.25 .44400025-.2400055 .44400025-.23600769 .44400025-.2290039 .43998719-.22601319 .43598939-.2230072 .25898744-.08200073 .22698975 .12098694 .22698975 .25 .22698975 .49499513 .33999635 .6559906 .44099427 .7259979Z"/>
<path id="font_8_1" d="M.19499207 .09828186C.18899536 .073272708 .17799378 .029251099 .17799378 .024246216 .17799378 .002243042 .19599915-.0107421879 .21499634-.0107421879 .22999573-.0107421879 .2519989-.002746582 .2630005 .022247315 .2639923 .027252198 .27598573 .07426453 .28199769 .10028076 .31599427 .23532105 .31599427 .23731995 .31799317 .24131775 .33099366 .2683258 .40299989 .40837098 .5249939 .40837098 .57398989 .40837098 .59498599 .38136292 .59498599 .3363495 .59498599 .27934266 .5529938 .17630005 .5299988 .119277957 .5249939 .107284549 .519989 .0942688 .519989 .07727051 .519989 .025253296 .56999209-.0107421879 .6289978-.0107421879 .73599246-.0107421879 .79100039 .119277957 .79100039 .14428711 .79100039 .15829468 .7739868 .15829468 .769989 .15829468 .7529907 .15829468 .7519989 .15429688 .74598696 .13528443 .72698977 .07527161 .68099978 .023254395 .6329956 .023254395 .6100006 .023254395 .6029968 .039260866 .6029968 .061264039 .6029968 .08227539 .6069946 .0922699 .6159973 .11427307 .6329956 .15429688 .67900088 .2683258 .67900088 .323349 .67900088 .39736939 .6259918 .4423828 .5309906 .4423828 .43998719 .4423828 .3769989 .38737489 .34199525 .34335328 .33699037 .42536927 .25698854 .4423828 .21998596 .4423828 .11999512 .4423828 .09098816 .28933717 .09098816 .28733827 .09098816 .2733307 .10699463 .2733307 .11199951 .2733307 .1289978 .2733307 .1309967 .27934266 .1349945 .29234315 .1499939 .35035707 .17298889 .40837098 .21499634 .40837098 .24899292 .40837098 .2559967 .3763733 .2559967 .35536195 .2559967 .34135438 .24598694 .30334474 .23999024 .2773285 .23298645 .25032044 .22299195 .20930481 .21798706 .18730164L.19499207 .09828186Z"/>
<path id="font_7_2" d="M.3909912 .25C.3909912 .58898928 .13398743 .75 .11399841 .75 .09799194 .75 .09799194 .73799136 .09799194 .73599246 .09799194 .73498538 .09799194 .72898867 .10398865 .72299197 .2539978 .60398867 .31399537 .42999269 .31399537 .25 .31399537 .1599884 .29699708 .06599426 .2630005-.01600647 .21499634-.13000489 .1519928-.18501282 .102996829-.2250061 .099990848-.227005 .09799194-.23200989 .09799194-.23600769 .09799194-.23800659 .09799194-.25 .11399841-.25 .13398743-.25 .3909912-.0900116 .3909912 .25Z"/>
<path id="font_6_2" d="M.12199402 .06324768C.117996219 .050247194 .11199951 .025222779 .11199951 .022232056 .11199951 .00022888184 .12998963-.009765625 .1459961-.009765625 .1639862-.009765625 .17999268 .0032196046 .18499756 .01222229 .18998719 .021224976 .19799805 .053237916 .20298767 .07424927 .20799256 .09326172 .21899414 .13928223 .22499085 .16429138 .23098755 .18629456 .23699951 .20831299 .24198914 .23132324 .25299073 .27233888 .25498963 .28033448 .28399659 .32136537 .31199647 .3613739 .35899354 .4133911 .43399049 .4133911 .49198915 .4133911 .49299623 .36238099 .49299623 .34336854 .49299623 .28334046 .44999696 .17228699 .43399049 .13027954 .4229889 .102264408 .4189911 .09326172 .4189911 .07624817 .4189911 .023223877 .46299745-.009765625 .5139923-.009765625 .6139984-.009765625 .6579895 .12828064 .6579895 .14328003 .6579895 .15628052 .644989 .15628052 .6419983 .15628052 .6279907 .15628052 .6269989 .15028382 .6230011 .13928223 .59999087 .059249879 .5569916 .018234253 .5169983 .018234253 .49598695 .018234253 .49198915 .032226564 .49198915 .053237916 .49198915 .07624817 .49699403 .089263919 .5149994 .13427735 .5269928 .1652832 .56799319 .2713318 .56799319 .32736207 .56799319 .4243927 .4909973 .44140626 .43798829 .44140626 .35499574 .44140626 .29899598 .39038087 .2689972 .3503723 .2619934 .41940309 .20298767 .44140626 .1619873 .44140626 .11898804 .44140626 .09599304 .4104004 .08299255 .38739015 .06098938 .3503723 .04699707 .29335023 .04699707 .28834535 .04699707 .27534486 .06098938 .27534486 .06399536 .27534486 .07798767 .27534486 .07899475 .27833558 .085998538 .3053589 .100997928 .36437989 .11999512 .4133911 .15899658 .4133911 .18499756 .4133911 .19198609 .39138795 .19198609 .36437989 .19198609 .34536744 .18299866 .3083496 .17599488 .28134156 .16899109 .2543335 .15899658 .21331787 .1539917 .19129944L.12199402 .06324768Z"/>
<path id="font_5_2" d="M.41600038-.8588867C.41600038-.5719147 .34899903-.2669525 .1519928-.04197693 .13798523-.025970459 .100997928 .013031006 .07699585 .0340271 .069992069 .040039064 .067993167 .040039064 .054992677 .040039064 .04499817 .040039064 .035995485 .040039064 .035995485 .030029297 .035995485 .026031495 .039993287 .022033692 .041992189 .02003479 .07598877-.014968872 .12998963-.06996155 .19198609-.17996216 .2999878-.37193299 .33999635-.61891177 .33999635-.8588867 .33999635-1.2928467 .21998596-1.5578156 .039993287-1.740799 .037994386-1.7427979 .035995485-1.7458038 .035995485-1.7487946 .035995485-1.7587891 .04499817-1.7587891 .054992677-1.7587891 .067993167-1.7587891 .069992069-1.7587891 .07899475-1.7507935 .17399597-1.668808 .2809906-1.5298157 .34999085-1.3188324 .3939972-1.1818543 .41600038-1.019867 .41600038-.8588867Z"/>
</defs>
<path transform="matrix(1.00006,0,0,-1.00005,3.7083207,43.731538)" stroke-width=".99628" stroke-linecap="butt" stroke-miterlimit="10" stroke-linejoin="miter" fill="none" stroke="#000000" d="M0 0H340.1617"/>
<use data-text="&#x00b7;" xlink:href="#font_1_2" transform="matrix(19.926394,0,0,-19.926196,194.53577,63.0605)"/>
<use data-text="&#x00b7;" xlink:href="#font_1_2" transform="matrix(19.926394,0,0,-19.926196,203.36318,63.0605)"/>
<use data-text="&#x00b7;" xlink:href="#font_1_2" transform="matrix(19.926394,0,0,-19.926196,212.21051,63.0605)"/>
<path transform="matrix(1.00006,0,0,-1.00005,3.7083207,43.731538)" stroke-width=".99628" stroke-linecap="butt" stroke-miterlimit="10" stroke-linejoin="miter" fill="none" stroke="#000000" d="M0-5.66934V5.66934"/>
<use data-text="0" xlink:href="#font_2_121" transform="matrix(9.963197,0,0,-9.963098,1.2171707,61.58943)"/>
<path transform="matrix(1.00006,0,0,-1.00005,3.7083207,43.731538)" stroke-width=".99628" stroke-linecap="butt" stroke-miterlimit="10" stroke-linejoin="miter" fill="none" stroke="#000000" d="M56.69362-5.66934V5.66934"/>
<use data-text="1" xlink:href="#font_2_82" transform="matrix(9.963197,0,0,-9.963098,57.91457,61.58943)"/>
<path transform="matrix(1.00006,0,0,-1.00005,3.7083207,43.731538)" stroke-width=".99628" stroke-linecap="butt" stroke-miterlimit="10" stroke-linejoin="miter" fill="none" stroke="#000000" d="M113.38724-5.66934V5.66934"/>
<use data-text="2" xlink:href="#font_2_107" transform="matrix(9.963197,0,0,-9.963098,114.61198,61.58943)"/>
<path transform="matrix(1.00006,0,0,-1.00005,3.7083207,43.731538)" stroke-width=".99628" stroke-linecap="butt" stroke-miterlimit="10" stroke-linejoin="miter" fill="none" stroke="#000000" d="M283.4681-5.66934V5.66934"/>
<use data-text="n" xlink:href="#font_3_2" transform="matrix(9.963197,0,0,-9.963098,275.6236,61.58943)"/>
<use data-text="&#x2212;" xlink:href="#font_1_1" transform="matrix(9.963197,0,0,-9.963098,283.81809,61.58943)"/>
<use data-text="1" xlink:href="#font_4_4" transform="matrix(9.963197,0,0,-9.963098,293.7807,61.58943)"/>
<path transform="matrix(1.00006,0,0,-1.00005,3.7083207,43.731538)" stroke-width=".99628" stroke-linecap="butt" stroke-miterlimit="10" stroke-linejoin="miter" fill="none" stroke="#000000" d="M340.1617-5.66934V5.66934"/>
<use data-text="n" xlink:href="#font_3_2" transform="matrix(9.963197,0,0,-9.963098,340.9005,61.58943)"/>
<path transform="matrix(1.00006,0,0,-1.00005,3.7083207,43.731538)" stroke-width=".3985" stroke-linecap="butt" stroke-miterlimit="10" stroke-linejoin="miter" fill="none" stroke="#000000" d="M2.83484 11.33871C131.29666 33.98935 208.86502 33.98935 336.87556 11.41827"/>
<path transform="matrix(.98485907,.17363867,.17364042,-.98484918,340.60404,32.3127)" stroke-width=".31879" stroke-linecap="round" stroke-linejoin="round" fill="none" stroke="#000000" d="M-1.19551 1.59401C-1.09587 .99626 0 .09961 .29886 0 0-.09961-1.09587-.99626-1.19551-1.59401"/>
<use data-text="(" xlink:href="#font_4_1" transform="matrix(9.963197,0,0,-9.963098,159.58167,9.392818)"/>
<use data-text="1" xlink:href="#font_4_4" transform="matrix(9.963197,0,0,-9.963098,163.44739,9.392818)"/>
<use data-text="+" xlink:href="#font_4_3" transform="matrix(9.963197,0,0,-9.963098,170.64081,9.392818)"/>
<use data-text="&#x03b9;" xlink:href="#font_3_1" transform="matrix(9.963197,0,0,-9.963098,180.61492,9.392818)"/>
<use data-text=")" xlink:href="#font_4_2" transform="matrix(9.963197,0,0,-9.963098,184.14113,9.392818)"/>
<path transform="matrix(1.00006,0,0,-1.00005,3.7083207,43.731538)" stroke-width=".3985" stroke-linecap="butt" stroke-miterlimit="10" stroke-linejoin="miter" fill="none" stroke="#000000" d="M2.83484-25.51212C21.53291-32.31773 35.16112-32.31773 53.42856-25.66885"/>
<path transform="matrix(.9397363,-.34202708,-.3420305,-.9397269,57.140066,69.40167)" stroke-width=".31879" stroke-linecap="round" stroke-linejoin="round" fill="none" stroke="#000000" d="M-1.19551 1.59401C-1.09587 .99626 0 .09961 .29886 0 0-.09961-1.09587-.99626-1.19551-1.59401"/>
<use data-text="(" xlink:href="#font_5_1" transform="matrix(9.963197,0,0,-9.963098,9.715683,78.26726)"/>
<use data-text="1" xlink:href="#font_4_4" transform="matrix(9.963197,0,0,-9.963098,15.6660389,89.32681)"/>
<use data-text="+" xlink:href="#font_4_3" transform="matrix(9.963197,0,0,-9.963098,22.859467,89.32681)"/>
<use data-text="&#x03b9;" xlink:href="#font_6_1" transform="matrix(6.9742186,0,0,-6.9741489,34.02014,85.40362)"/>
<use data-text="(" xlink:href="#font_7_1" transform="matrix(4.9815986,0,0,-4.981549,36.969316,82.39746)"/>
<use data-text="n" xlink:href="#font_8_1" transform="matrix(4.9815986,0,0,-4.981549,39.66748,82.39746)"/>
<use data-text=")" xlink:href="#font_7_2" transform="matrix(4.9815986,0,0,-4.981549,44.05474,82.39746)"/>
<path transform="matrix(1.00006,0,0,-1.00005,-78.997638,58.591279)" stroke-width=".3985" stroke-linecap="butt" stroke-miterlimit="10" stroke-linejoin="miter" fill="none" stroke="#000000" d="M113.011-28.243H126.242"/>
<use data-text="n" xlink:href="#font_6_2" transform="matrix(6.9742186,0,0,-6.9741489,38.173395,92.76198)"/>
<use data-text=")" xlink:href="#font_5_2" transform="matrix(9.963197,0,0,-9.963098,48.447015,78.26726)"/>
<path transform="matrix(1.00006,0,0,-1.00005,3.7083207,43.731538)" stroke-width=".3985" stroke-linecap="butt" stroke-miterlimit="10" stroke-linejoin="miter" fill="none" stroke="#000000" d="M59.52846-25.51212C78.22653-32.31773 91.85474-32.31773 110.12218-25.66885"/>
<path transform="matrix(.9397363,-.34202708,-.3420305,-.9397269,113.83708,69.40167)" stroke-width=".31879" stroke-linecap="round" stroke-linejoin="round" fill="none" stroke="#000000" d="M-1.19551 1.59401C-1.09587 .99626 0 .09961 .29886 0 0-.09961-1.09587-.99626-1.19551-1.59401"/>
<use data-text="(" xlink:href="#font_5_1" transform="matrix(9.963197,0,0,-9.963098,66.413089,78.26726)"/>
<use data-text="1" xlink:href="#font_4_4" transform="matrix(9.963197,0,0,-9.963098,72.363437,89.32681)"/>
<use data-text="+" xlink:href="#font_4_3" transform="matrix(9.963197,0,0,-9.963098,79.55687,89.32681)"/>
<use data-text="&#x03b9;" xlink:href="#font_6_1" transform="matrix(6.9742186,0,0,-6.9741489,90.717548,85.40362)"/>
<use data-text="(" xlink:href="#font_7_1" transform="matrix(4.9815986,0,0,-4.981549,93.66672,82.39746)"/>
<use data-text="n" xlink:href="#font_8_1" transform="matrix(4.9815986,0,0,-4.981549,96.36488,82.39746)"/>
<use data-text=")" xlink:href="#font_7_2" transform="matrix(4.9815986,0,0,-4.981549,100.75214,82.39746)"/>
<path transform="matrix(1.00006,0,0,-1.00005,-22.300236,58.591279)" stroke-width=".3985" stroke-linecap="butt" stroke-miterlimit="10" stroke-linejoin="miter" fill="none" stroke="#000000" d="M113.011-28.243H126.242"/>
<use data-text="n" xlink:href="#font_6_2" transform="matrix(6.9742186,0,0,-6.9741489,94.87079,92.76198)"/>
<use data-text=")" xlink:href="#font_5_2" transform="matrix(9.963197,0,0,-9.963098,105.14441,78.26726)"/>
<path transform="matrix(1.00006,0,0,-1.00005,3.7083207,43.731538)" stroke-width=".3985" stroke-linecap="butt" stroke-miterlimit="10" stroke-linejoin="miter" fill="none" stroke="#000000" d="M286.30296-25.51212C305.001-32.31773 318.6292-32.31773 336.89668-25.66885"/>
<path transform="matrix(.9397363,-.34202708,-.3420305,-.9397269,340.62516,69.40167)" stroke-width=".31879" stroke-linecap="round" stroke-linejoin="round" fill="none" stroke="#000000" d="M-1.19551 1.59401C-1.09587 .99626 0 .09961 .29886 0 0-.09961-1.09587-.99626-1.19551-1.59401"/>
<use data-text="(" xlink:href="#font_5_1" transform="matrix(9.963197,0,0,-9.963098,293.20069,78.26726)"/>
<use data-text="1" xlink:href="#font_4_4" transform="matrix(9.963197,0,0,-9.963098,299.15104,89.32681)"/>
<use data-text="+" xlink:href="#font_4_3" transform="matrix(9.963197,0,0,-9.963098,306.34449,89.32681)"/>
<use data-text="&#x03b9;" xlink:href="#font_6_1" transform="matrix(6.9742186,0,0,-6.9741489,317.50514,85.40362)"/>
<use data-text="(" xlink:href="#font_7_1" transform="matrix(4.9815986,0,0,-4.981549,320.4543,82.39746)"/>
<use data-text="n" xlink:href="#font_8_1" transform="matrix(4.9815986,0,0,-4.981549,323.15248,82.39746)"/>
<use data-text=")" xlink:href="#font_7_2" transform="matrix(4.9815986,0,0,-4.981549,327.53974,82.39746)"/>
<path transform="matrix(1.00006,0,0,-1.00005,204.48737,58.591279)" stroke-width=".3985" stroke-linecap="butt" stroke-miterlimit="10" stroke-linejoin="miter" fill="none" stroke="#000000" d="M113.011-28.243H126.242"/>
<use data-text="n" xlink:href="#font_6_2" transform="matrix(6.9742186,0,0,-6.9741489,321.6584,92.76198)"/>
<use data-text=")" xlink:href="#font_5_2" transform="matrix(9.963197,0,0,-9.963098,331.932,78.26726)"/>
</svg>
