<svg xmlns="http://www.w3.org/2000/svg" xmlns:xlink="http://www.w3.org/1999/xlink" xmlns:inkscape="http://www.inkscape.org/namespaces/inkscape" version="1.1" width="166" height="138" viewBox="0 0 166 138">
<defs>
<clipPath id="clip_1">
<path transform="matrix(1.00003,0,0,-1.00002,2.3955155,136.59741)" d="M-16.19081-13.45076H178.0893V147.95034H-16.19081Z"/>
</clipPath>
<path id="font_2_1" d="M.30299378 .3157959H.47299195C.61499026 .3157959 .7539978 .41973878 .7539978 .53167727 .7539978 .6086273 .6879883 .6826172 .5569916 .6826172H.23298645C.21398926 .6826172 .20298767 .6826172 .20298767 .66360476 .20298767 .6516113 .21199036 .6516113 .23199463 .6516113 .24499512 .6516113 .2630005 .65060427 .2749939 .6496124 .29100038 .6476135 .29699708 .64460757 .29699708 .6336212 .29699708 .6296234 .29599 .62661746 .29299928 .614624L.15899658 .07795715C.14898682 .038986207 .14698792 .0309906 .067993167 .0309906 .050994874 .0309906 .039993287 .0309906 .039993287 .011993408 .039993287 0 .051986696 0 .054992677 0 .08299255 0 .1539917 .0029907227 .18199158 .0029907227 .20298767 .0029907227 .22499085 .0019989014 .24598694 .0019989014 .2679901 .0019989014 .2899933 0 .31098939 0 .31799317 0 .33099366 0 .33099366 .019989014 .33099366 .0309906 .32199098 .0309906 .30299378 .0309906 .2659912 .0309906 .23799134 .0309906 .23799134 .048980714 .23799134 .054977418 .23999024 .05996704 .24099732 .065963748L.30299378 .3157959M.375 .6136322C.38398744 .64860537 .38598634 .6516113 .42900086 .6516113H.5249939C.60798647 .6516113 .6609955 .62461856 .6609955 .55566409 .6609955 .5166931 .6409912 .43074037 .60198977 .39476014 .5519867 .34977723 .49198915 .34179688 .44799806 .34179688H.30699159L.375 .6136322Z"/>
</defs>
<g clip-path="url(#clip_1)">
<path transform="matrix(1.00003,0,0,-1.00002,2.3955155,136.59741)" stroke-width=".99628" stroke-linecap="butt" stroke-miterlimit="10" stroke-linejoin="miter" fill="none" stroke="#0000ff" d="M0 0 6.74574 24.3464 13.49152 44.38753 20.23729 60.4881 26.98306 73.01297 33.72884 82.32706 40.47461 88.79521 47.22038 92.78223 53.96616 94.65302 60.71191 94.77242 67.45769 93.5053 74.20345 91.21649 80.94922 88.27087 87.69499 85.03331 94.44077 81.86862 101.18654 79.14171 107.93231 77.21739 114.67807 76.46053 121.42384 77.236 128.16962 79.90866 134.91539 84.84334 141.66115 92.4049 148.40692 102.95827 155.1527 116.86818 161.89847 134.49956"/>
<path transform="matrix(1.00003,0,0,-1.00002,2.3955155,136.59741)" stroke-width=".99628" stroke-linecap="butt" stroke-miterlimit="10" stroke-linejoin="miter" fill="none" stroke="#ff0000" d="M0 75.66023 4.72209 77.37659 9.4442 79.09296 14.16629 80.80931 18.8884 82.52568 23.6105 84.24205 28.33261 85.9584 33.0547 87.67477 37.77681 89.39114 42.49892 91.1075 47.22102 92.82385 51.94312 94.5402 56.66522 96.25658 61.38733 97.97295 66.10944 99.6893 70.83153 101.40567 75.55363 103.12204 80.27574 104.8384 84.99785 106.55476 89.71994 108.27113 94.44205 109.98747 99.16415 111.70384 103.88626 113.42021 108.60835 115.13657 113.33046 116.85294"/>
<path transform="matrix(1.00003,0,0,-1.00002,2.3955155,136.59741)" stroke-width=".3985" stroke-linecap="butt" stroke-miterlimit="10" stroke-linejoin="miter" fill="none" stroke="#000000" d="M48.57031 93.3143"/>
<use data-text="P" xlink:href="#font_2_1" transform="matrix(9.962899,0,0,-9.962799,47.07686,39.761476)"/>
</g>
<path transform="matrix(1.00003,0,0,-1.00002,2.3955155,136.59741)" d="M50.56287 93.3143C50.56287 94.41476 49.67079 95.30685 48.57031 95.30685 47.46985 95.30685 46.57776 94.41476 46.57776 93.3143 46.57776 92.21382 47.46985 91.32175 48.57031 91.32175 49.67079 91.32175 50.56287 92.21382 50.56287 93.3143ZM48.57031 93.3143"/>
<path transform="matrix(1.00003,0,0,-1.00002,2.3955155,136.59741)" stroke-width=".3985" stroke-linecap="butt" stroke-miterlimit="10" stroke-linejoin="miter" fill="none" stroke="#000000" d="M50.56287 93.3143C50.56287 94.41476 49.67079 95.30685 48.57031 95.30685 47.46985 95.30685 46.57776 94.41476 46.57776 93.3143 46.57776 92.21382 47.46985 91.32175 48.57031 91.32175 49.67079 91.32175 50.56287 92.21382 50.56287 93.3143ZM48.57031 93.3143"/>
<path transform="matrix(1.00003,0,0,-1.00002,2.3955155,136.59741)" stroke-width=".3985" stroke-linecap="butt" stroke-miterlimit="10" stroke-linejoin="miter" fill="none" stroke="#000000" d=""/>
</svg>
